Coordinates
version=1
nRows=24
nColumns=24
inDegrees=yes

Units are S.I. units (second, meters, Newtons, ...)
Angles are in degrees.

endheader
time	pelvis_tilt	pelvis_list	pelvis_rotation	pelvis_tx	pelvis_ty	pelvis_tz	hip_flexion_r	hip_adduction_r	hip_rotation_r	knee_angle_r	ankle_angle_r	subtalar_angle_r	mtp_angle_r	hip_flexion_l	hip_adduction_l	hip_rotation_l	knee_angle_l	ankle_angle_l	subtalar_angle_l	mtp_angle_l	lumbar_extension	lumbar_bending	lumbar_rotation
      2.30000000	     25.68940411	     -0.53124515	      2.90409288	      0.65304250	      0.84605208	      0.00931950	    -33.89787955	      0.16775568	    -21.12863021	    -45.48620110	     17.51680814	     12.98082099	     60.91183145	     -7.84989270	      2.16585685	     -8.50249609	    -16.83022959	     12.09113504	      2.00904497	     47.54925319	    -38.07962301	      0.37460431	    -11.81611689
      2.30500000	     25.62357430	     -0.18271499	      2.91856804	      0.65925575	      0.84640079	      0.00887706	    -33.04596424	     -0.55289479	    -21.36621470	    -47.63187846	     16.09497489	     12.10557223	     61.06209619	     -8.05890757	      2.55422769	     -8.21511512	    -17.30815868	     12.32483523	      1.93638417	     47.42173186	    -37.98410658	     -0.00143273	    -12.02729701
      2.31000000	     25.54049570	      0.08241117	      2.98751847	      0.66536713	      0.84676070	      0.00834664	    -32.17514087	     -1.13816231	    -21.50843791	    -49.59744288	     14.65943013	     11.11558735	     61.50035431	     -8.23950662	      2.85607338	     -7.87170532	    -17.79468069	     12.71213887	      1.67689208	     46.99367323	    -37.87985755	     -0.25851431	    -12.25607547
      2.31500000	     25.49509872	      0.38208945	      3.00745888	      0.67155169	      0.84720135	      0.00790174	    -31.36451587	     -1.76707532	    -21.62443898	    -51.43897520	     13.58428897	     10.08653042	     61.47924974	     -8.54774948	      3.19162246	     -7.64152780	    -18.10826593	     13.14312993	      1.72006554	     46.77929788	    -37.80700717	     -0.57575076	    -12.44840087
      2.32000000	     25.45011505	      0.63331601	      3.06562505	      0.67766356	      0.84768876	      0.00739445	    -30.56117800	     -2.31073652	    -21.71513137	    -53.12074549	     12.67991637	      9.03314072	     61.23732763	     -8.85886797	      3.46643165	     -7.42598824	    -18.40523697	     13.54553436	      1.78009132	     46.54778677	    -37.73997095	     -0.81568628	    -12.61851828
      2.32500000	     25.40248553	      0.81037509	      3.15697775	      0.68373334	      0.84822431	      0.00690568	    -29.76040027	     -2.73270567	    -21.75160348	    -54.64410178	     12.03775854	      8.10778831	     59.54510035	     -9.17416670	      3.63845290	     -7.24180587	    -18.69442123	     14.11879338	      2.16423990	     45.20324533	    -37.67141052	     -0.97046099	    -12.78181945
      2.33000000	     25.37218699	      0.98450101	      3.23453804	      0.68975784	      0.84880563	      0.00642040	    -28.98347358	     -3.14198946	    -21.77201049	    -56.03585472	     11.74786669	      7.08641953	     58.11483452	     -9.53086429	      3.80941869	     -7.11944984	    -18.92230075	     14.63900821	      2.42237253	     44.54244629	    -37.62477430	     -1.12146742	    -12.93500185
      2.33500000	     25.35884665	      1.10007405	      3.32432211	      0.69571912	      0.84944257	      0.00595023	    -28.22911109	     -3.45452654	    -21.74738826	    -57.26378163	     11.76792845	      6.05606683	     56.41469421	     -9.91549507	      3.90328313	     -7.04456292	    -19.11548667	     15.17432593	      2.77468959	     44.06609219	    -37.59980581	     -1.20598798	    -13.05169509
      2.34000000	     25.33876421	      1.16410586	      3.42463597	      0.70159307	      0.85011133	      0.00547462	    -27.45906933	     -3.68669595	    -21.68620204	    -58.35379636	     12.04441606	      5.02146389	     54.55841019	    -10.30383787	      3.93735388	     -6.97983096	    -19.26047961	     15.67695084	      3.12814184	     43.62660225	    -37.57357925	     -1.22981214	    -13.14017947
      2.34500000	     25.31862787	      1.18996651	      3.52156347	      0.70740911	      0.85080727	      0.00501732	    -26.68166849	     -3.86414973	    -21.60118363	    -59.31333170	     12.52538724	      4.03190482	     52.53319264	    -10.69917545	      3.92366613	     -6.96417543	    -19.37581940	     16.17987107	      3.55178863	     43.17179014	    -37.55083699	     -1.21489651	    -13.20327539
      2.35000000	     25.29930347	      1.17328854	      3.62971497	      0.71314873	      0.85152357	      0.00456183	    -25.90123233	     -3.97145870	    -21.50293500	    -60.12982384	     13.20286492	      3.02205294	     50.55173761	    -11.08978439	      3.85585456	     -6.97220051	    -19.48675046	     16.68970225	      4.01090408	     42.73270137	    -37.53366755	     -1.14801215	    -13.25578749
      2.35500000	     25.23218374	      1.13355934	      3.72941800	      0.71877450	      0.85219478	      0.00405801	    -25.04097989	     -4.05978958	    -21.39578718	    -60.84153310	     13.87418335	      1.84801213	     49.99832951	    -11.43634669	      3.78745433	     -6.91408770	    -19.54070037	     17.11280121	      4.22323556	     42.67413702	    -37.47713263	     -1.05266203	    -13.27017960
      2.36000000	     25.22436979	      1.04184541	      3.82635992	      0.72437138	      0.85293476	      0.00370494	    -24.25745128	     -4.04416118	    -21.23314955	    -61.41153892	     15.07474462	      1.13556066	     46.40172640	    -11.82526346	      3.62242082	     -7.02118840	    -19.65543237	     17.67660573	      4.79221583	     41.82832239	    -37.48268347	     -0.92068322	    -13.27306609
      2.36500000	     25.21312535	      0.91694423	      3.94956763	      0.72992634	      0.85369658	      0.00331351	    -23.47323525	     -3.96890008	    -21.10235943	    -61.80732145	     16.08894982	      0.13878568	     44.95236451	    -12.21576145	      3.41491160	     -7.09814110	    -19.73741734	     18.21972743	      5.42507151	     41.42924938	    -37.48748670	     -0.73481563	    -13.28980184
      2.37000000	     25.16147327	      0.76750970	      4.05070669	      0.73538693	      0.85439111	      0.00294659	    -22.61919511	     -3.86591644	    -20.93060368	    -62.12266932	     17.23527968	     -0.74212065	     43.07800107	    -12.55542905	      3.19968139	     -7.15762793	    -19.80756942	     18.73072298	      5.87752105	     40.90421522	    -37.45630227	     -0.53430321	    -13.27220943
      2.37500000	     25.03830977	      0.60856926	      4.14801710	      0.74076163	      0.85499343	      0.00255686	    -21.66676510	     -3.75148661	    -20.75063776	    -62.33981290	     18.29588586	     -1.67904403	     42.69513734	    -12.81505270	      2.99789303	     -7.15284133	    -19.84060100	     19.07268982	      6.05295096	     40.84044967	    -37.36015548	     -0.32263426	    -13.26074442
      2.38000000	     25.00443388	      0.42174467	      4.20600023	      0.74613898	      0.85569297	      0.00230918	    -20.82327406	     -3.58470359	    -20.52002481	    -62.43339535	     19.67422913	     -2.18954035	     39.66476708	    -13.17453530	      2.74134608	     -7.29650610	    -19.89293837	     19.55870611	      6.63450167	     39.92553354	    -37.35601029	     -0.10743494	    -13.18734846
      2.38500000	     24.90207748	      0.23367165	      4.30498393	      0.75140996	      0.85627107	      0.00197906	    -19.89537094	     -3.39895118	    -20.33084680	    -62.41383162	     20.75711317	     -2.93166793	     39.46580015	    -13.43151795	      2.50283971	     -7.30086831	    -19.96442797	     19.95823441	      6.79269097	     39.89372990	    -37.29294028	      0.13470289	    -13.20469017
      2.39000000	     24.82603328	     -0.00883560	      4.34828047	      0.75674329	      0.85689332	      0.00178542	    -19.00328875	     -3.14644216	    -20.07598282	    -62.27268005	     22.02894241	     -3.31669483	     36.99172268	    -13.74766009	      2.19717219	     -7.44269255	    -19.98264627	     20.42708624	      7.34070667	     38.94440591	    -37.24449124	      0.39723995	    -13.07731445
      2.39500000	     24.69911672	     -0.20084969	      4.40333332	      0.76201510	      0.85738496	      0.00152538	    -18.05099508	     -2.95457907	    -19.87852655	    -62.06856748	     23.07261533	     -3.81171514	     36.85871164	    -13.99440543	      1.97255667	     -7.47987492	    -20.00872305	     20.80077618	      7.46056805	     38.90741061	    -37.15312428	      0.62350159	    -13.07090964
      2.40000000	     24.63511316	     -0.45339644	      4.42782819	      0.76730936	      0.85795418	      0.00139619	    -17.18203441	     -2.66496402	    -19.62047844	    -61.72249120	     24.19737636	     -4.06581465	     34.95532928	    -14.32588965	      1.66235702	     -7.62693910	    -20.01387580	     21.29876890	      7.99245729	     38.07387433	    -37.12328947	      0.88765848	    -12.95174552
      2.40500000	     24.43443229	     -0.64526787	      4.45692385	      0.77254205	      0.85827818	      0.00119096	    -16.14786162	     -2.46796792	    -19.42161024	    -61.37019047	     25.18144447	     -4.27495087	     34.67165029	    -14.48376186	      1.45380182	     -7.64379682	    -20.04395494	     21.61412788	      8.13225499	     37.90129848	    -36.95952914	      1.09866952	    -12.91506244
      2.41000000	     24.36971089	     -0.88924507	      4.45181517	      0.77779343	      0.85876510	      0.00111481	    -15.29430246	     -2.17068927	    -19.14887372	    -60.84607679	     26.19106454	     -4.29145738	     33.16803404	    -14.81558432	      1.17402048	     -7.77505285	    -20.03904015	     22.06663424	      8.43235090	     37.03691231	    -36.93797877	      1.34201264	    -12.83039899
      2.41500000	     24.26288336	     -1.07470145	      4.46095048	      0.78300992	      0.85916301	      0.00095307	    -14.41084299	     -1.94701161	    -18.94913051	    -60.24991427	     27.05140701	     -4.29601455	     33.18977322	    -15.11026570	      0.98398922	     -7.75352685	    -19.98910913	     22.29807058	      8.39715158	     37.01240045	    -36.87783707	      1.54397429	    -12.77470241
